<svg xmlns="http://www.w3.org/2000/svg" viewBox="0 0 497.42 430.61"><defs><style>.cls-1{fill:#c99f37;}.cls-2{fill:#fff;}</style></defs><title>Asset 1</title><g id="Layer_2" data-name="Layer 2"><g id="Layer_1-2" data-name="Layer 1"><path class="cls-1" d="M141,31.56c1.5,11.29,9.05,18.05,17.76,23.72,9,5.85,14.49,14.25,17.93,24a76.52,76.52,0,0,0,21.81,32.17,66.54,66.54,0,0,1,9.9,11.36c1.17,1.65,2.23,2,4.06,1s1-2.36.55-3.57q-19.66-50.51-39.35-101c-.56-1.46-2.48-3.54-.21-4.57s2.55,1.85,3.18,3.2Q199.33,67,221.84,116.08c.9,2,1.55,3.52,4.29,2.39,1.77-.73,2.27-1.5,2-3.35a69.78,69.78,0,0,0-4.84-19c-3.83-8.79-6-17.88-4.78-27.65.6-4.74.28-9.59.25-14.39,0-8.33-1.72-16.16-6.3-23.37-3.08-4.85-5.29-10.22-4.94-16.21.25-4.13,1.07-8.09,4.36-11,.91.37.62,1.05.47,1.53-2.48,8.33.3,15.69,4.33,22.74,3.36,5.88,7.41,11.36,8.77,18.23a64.83,64.83,0,0,1,1,16.43c-.77,12.84,2.09,24.83,7.59,36.34a66.12,66.12,0,0,1,4.45,13.29c.39,1.64.23,3.84,3.22,3.47S244,113,244,111.31c.35-9.6.55-19.2.85-28.79q1.27-39.82,2.6-79.66C247.5,1.67,247-.08,249,0s1.42,1.82,1.46,3q1.71,54.39,3.37,108.79c.06,2-.07,3.57,2.72,3.8,2.56.21,3.15-1,3.68-3,1.66-6.48,3-13,2.7-19.73-.49-11.66,3.8-22,9.15-32a83.67,83.67,0,0,0,5.05-12.71,38.69,38.69,0,0,0,1.61-17.28c-.94-7.7-1.21-15.5,4.05-22.17a12.57,12.57,0,0,1,5.9-4.58c.16.48.36.79.28.88-6.16,7.83-6.95,16.83-4.83,26,3,12.83-.66,24.33-6.1,35.55a65.14,65.14,0,0,0-6.33,30.62A89.5,89.5,0,0,1,270.58,115c-.33,1.87-.34,3,1.83,3.65s2.63-.88,3.23-2.17q11.88-25.62,23.7-51.25L321.42,17.5c.24-.53.48-1.07.73-1.59.49-1,1.19-1.88,2.43-1.29,1.06.51.92,1.49.55,2.44-.77,2-1.52,3.93-2.29,5.89q-19.06,48.66-38.16,97.31c-.61,1.56-1,2.78,1,3.72,1.7.8,2.92,1.43,4.41-.59,3.84-5.17,7.68-10.28,10.11-16.36a56.69,56.69,0,0,1,17.66-24c4.29-3.39,8-7.53,11.88-11.41,5.5-5.51,8.82-12.16,10.9-19.69,2.14-7.73,5.89-14.59,14-17.78,1.72-.67,3.46-1.39,5.94-.33-10.86,5-14.4,14.58-16.42,24.86-2.29,11.66-9.66,19.84-18,27.3a67.4,67.4,0,0,0-18.31,25.75A96.11,96.11,0,0,1,299.22,129c-.82,1.26-1.82,2.32-.05,3.86s2.85.57,4.11-.58q33.11-30.37,66.23-60.73c5.12-4.7,10.19-9.47,15.36-14.13.94-.85,2.09-2.6,3.51-1.17s-.27,2.49-1.2,3.44C374.4,72.77,361.57,85.82,348.83,99q-19.4,20-38.65,40.14c-1.06,1.09-2.27,1.92-.7,3.71,1.43,1.64,2.46,2.23,4.62,1,5.6-3.22,11-6.68,15.58-11.28a59,59,0,0,1,25.52-15.47,91,91,0,0,0,23.05-10.19,35.35,35.35,0,0,0,8.4-7.88c3.5-4.25,7.13-8.42,12.14-11,4.7-2.42,9.57-3.22,14.55-1.71.24.93-.15,1.08-.47,1.11a26.78,26.78,0,0,0-20,12.36c-8.1,12.38-19.6,19.44-33.14,23.94-9.91,3.29-18.08,9.22-25.34,16.5a106.59,106.59,0,0,1-14.68,12.5c-1.18.81-2.26,1.38-1.21,3.26s2,1.76,3.65,1.14q49.17-18.2,98.37-36.29c2.19-.81,4.36-1.69,6.59-2.4,1.32-.42,3.15-1.83,4,0,1,2.19-1.5,2.25-2.67,2.77q-20.7,9.15-41.46,18.15l-60.78,26.51c-1.38.6-2.86.8-2.16,3.09.65,2.12,1.47,3.15,3.87,2.75,6.11-1,12.23-1.79,18-4.22,9.95-4.16,20.19-6.45,31.14-5.13,5.08.61,10.3.3,15.44.17a43.26,43.26,0,0,0,20.8-5.46c7.53-4.28,15.47-7.53,24.39-4.22,1.81.67,3.83,1.11,4.75,3.12a1.07,1.07,0,0,1-1.32.38c-8.92-2.41-17.19-.06-24.43,4.76-10.65,7.09-22.15,9.72-34.65,9a77.12,77.12,0,0,0-37.48,7.35A73.57,73.57,0,0,1,329.91,182c-1.59.36-2.78.7-2.55,2.9s1.51,2.19,3.11,2.23q33,.88,66,1.82L440,190.15c1.17,0,2.34.11,3.5.22s2.67,0,2.7,1.55-1.54,1.47-2.65,1.52q-8.6.31-17.2.55l-92.94,2.54a34.25,34.25,0,0,1-3.5.14c-2.11-.15-2.43,1.1-2.71,2.79s.21,2.63,1.92,3c5.81,1.34,11.54,3.2,17.59,3A67,67,0,0,1,380.53,213c7.89,4.07,16.25,7.24,25.22,8.27,4,.46,7.92-.32,11.87-.6,7.26-.51,14.3-.17,20.31,4.74,1.27,1,2.39,2.12,2.64,3.84a2.15,2.15,0,0,1-2.34-.07c-6.86-4.35-14.53-4.91-22-3.21-14,3.16-26.67-.16-39.09-6a66.43,66.43,0,0,0-29-5.91c-7,0-14.06.15-21-1.31-1.85-.39-2.65.12-3.26,2-.72,2.23.83,2.3,2,2.82q50.28,22.06,100.57,44.1a16.76,16.76,0,0,1,2.24,1c1.08.67,3.32.8,2.39,2.69-.76,1.57-2.49.6-3.77.13L350.42,237c-9.43-3.5-18.88-6.94-28.28-10.5-1.79-.67-2.86-.71-4,1.19s-.53,2.89,1,4c4.89,3.62,9.69,7.29,15.4,9.66a58.27,58.27,0,0,1,22.63,16.76c4.21,5,9.3,9.2,14,13.73.63.61,1.72.93,1.46,2.35-3.25.33-5.77-1.4-8.19-3.13a49.85,49.85,0,0,1-5.86-5c-8.36-8.23-18.51-13.39-29.32-17.49a81,81,0,0,1-16.55-8.39c-2-1.36-2.77-.21-4,1-1.4,1.4-1.19,2.36.06,3.76,6.37,7.17,12.64,14.42,18.93,21.65.69.79,1.34,1.63,2,2.44s1,1.43.3,2.16a1.65,1.65,0,0,1-2.26,0c-1.55-1.23-3.06-2.53-4.57-3.83-6.58-5.63-13.25-11.16-19.67-17-2.2-2-3.35-.74-5,.45s-2.17,2.32-1,4.34c1.63,2.83,2.84,5.89,4.2,8.87.33.71,1.17,1.44.52,2.22s-1.76.53-2.64.29c-3.67-1-6.42-3.46-8.67-6.3-1.76-2.23-3.19-2.14-5.56-1q-36.84,17.89-73.57-.39c-1.94-1-3.17-1.13-4.79.54-2.1,2.18-4.54,4-6.86,6-.61.52-1.22,1.33-2.11,1s-1-1.48-1.06-2.41a14.86,14.86,0,0,1,3.05-9.15c.88-1.21,1.85-2.32,0-3.42-1.6-.95-2.64-3.49-5.24-1.2-7.3,6.41-14.76,12.63-22.16,18.91-.8.69-1.62,1.35-2.46,2a1.6,1.6,0,0,1-2.23.06c-.79-.78-.25-1.51.3-2.15,3.2-3.72,6.39-7.46,9.62-11.16,3.69-4.22,7.38-8.46,11.16-12.61,1.29-1.43,1.76-2.57.17-4.11-1.38-1.33-2.11-3.12-4.76-1.51-6.3,3.85-12.58,7.69-18.2,12.5A49,49,0,0,1,151,260.7c-10,3.67-20.21,6.64-30,10.93-2.18,1-4.22,2.24-6.6,3.05a19.23,19.23,0,0,1,6.08-6.16c6-4.07,12.69-6.49,19.36-9,9.17-3.45,16.83-9.09,23.63-16a100.4,100.4,0,0,1,14.74-12.41c1.32-.91,2.46-1.57,1.37-3.59s-2.32-1.38-3.77-.84L97.55,255.54q-13.33,4.91-26.66,9.8c-1.37.5-3.35,1.68-4,0-.92-2.23,1.75-2.37,3-2.94q26.32-11.61,52.72-23,24.27-10.59,48.54-21.22c1.5-.66,3.77-.66,2.87-3.69-.82-2.76-2.33-2.39-4.49-2.27-9.42.55-17.84,4.56-26.61,7.38-6.92,2.22-14,2.48-21.18,1.9a108,108,0,0,0-25.21.79c-5.86.9-10.65,4.09-15.81,6.52-6.9,3.25-13.89,4.88-21.32,1.92-1-.41-2.72-.6-2.42-2,.34-1.63,2-.73,2.92-.56,7.5,1.3,14.44-.93,20.38-4.85,10.82-7.13,22.35-10.37,35.2-9.43,13.26,1,25.78-1.86,37.8-7.4A79.78,79.78,0,0,1,168,201.81c1.34-.32,3.13-.18,2.77-2.65-.29-2.06-1.4-2.33-3.1-2.37q-33.71-1-67.4-2L55.32,193.5c-.58,0-1.17-.08-1.75-.11-.87-.06-1.73-.28-1.84-1.26-.13-1.22.81-1.62,1.8-1.67,3.63-.17,7.25-.32,10.88-.42q51.6-1.42,103.21-2.78c2.07,0,2.76-.62,3-2.7s-.44-2.84-2.37-3.35c-7-1.84-14.13-3.29-21.46-3-11.77.51-22.15-3.88-32.5-8.78-10.56-5-21.45-8.31-33.57-6.38-7.59,1.22-15.25.38-21.47-5.24-1.54-1.39-2.92-2.86-3.25-5.23a31,31,0,0,0,18.44,5.92,51.31,51.31,0,0,0,11.16-1c10.21-2.16,19.8-.2,29.07,3.93,10.77,4.8,21.74,8.61,33.76,8.29A111.87,111.87,0,0,1,170.85,171a2.19,2.19,0,0,0,2.89-1.71c.57-1.8-.24-2.54-1.71-3.17q-14.65-6.33-29.28-12.73-28.65-12.6-57.29-25.26c-5.22-2.29-10.5-4.47-15.68-6.84-1.27-.58-4-.62-3-2.9.93-2,3-.36,4.32.14,18.12,6.65,36.19,13.4,54.28,20.1q25,9.25,50,18.48c1.65.61,2.86,1.13,4-1s.68-3.05-1-4.31c-5.31-3.86-10.72-7.46-16.93-9.83-9.77-3.73-18.24-9.32-24.88-17.62-2.62-3.27-5.87-6-8.9-9a46.88,46.88,0,0,0-22-12.45c-7.24-1.73-13.81-5-17.81-11.81-1.2-2.06-2.32-4.21-1.61-7.8,3.93,7.09,9.54,10.81,16.1,13.37a94.77,94.77,0,0,0,11.82,3.24,42.45,42.45,0,0,1,20.22,11.81c10.77,10.79,22.32,20.61,37.45,25.09,4.58,1.35,8.71,4,12.79,6.51,1.54,1,2.53,1.1,3.82-.44s.41-2.41-.62-3.48Q172.94,124,158.1,108.59q-15.24-15.77-30.54-31.47-8.53-8.79-17-17.65c-.87-.91-2.27-1.91-1-3.22s2.38,0,3.24.89c4.48,4.39,9,8.81,13.68,12.91,11.36,9.94,22.28,20.33,33.43,30.47q17.26,15.69,34.36,31.58c1.45,1.34,2.47,2.46,4.63.69s1.2-3.15.23-4.75c-3.17-5.19-6.35-10.36-11-14.46-9.06-8-14.23-18.34-17.8-29.69a75.69,75.69,0,0,0-7.11-15.24,32.68,32.68,0,0,0-9-10.14c-4.06-3-7.94-6.21-10.78-10.43C140,43.05,138.4,37.65,141,31.56Zm52.7,142.89c.79,0,.94.05,1,0,1.06-.74,2.08-1.52,3.15-2.23,8.35-5.54,17.17-9.5,27.57-8.21,11.1,1.38,16.32,6,18.39,16.41,1.79,9,.65,17.45-5.22,24.88-.74.94-2,2-.21,3.16s2.54.17,3.24-1.25c.36-.73.79-1.44,1.13-2.18,4.56-9.84,4.55-20.09,2.93-30.57-.71-4.63-3.12-7.53-7.07-9.72a34,34,0,0,0-23-4C206.78,162.27,199,166.09,193.73,174.45Zm57.5,9.59c-.14,9.29,1.39,16.4,5,23,.7,1.29,1.39,2.57,3.22,1.42s.74-2.13-.05-3.13c-6.12-7.77-6.77-16.42-5.15-25.89,1.5-8.75,6.85-12.77,14.72-14.77,10.53-2.68,19.78.65,28.71,5.85,1.32.77,2.56,3.7,4,1.9,1-1.19-1.5-3.11-2.86-4.43a4.75,4.75,0,0,0-.55-.43c-11.63-8.38-24-9.7-37.09-3.83-4.61,2.07-8.51,5-9.13,10.53C251.58,178.12,251.39,182,251.23,184Zm-24.3,50.52c3.65,1.55,7.67,1.62,9.79,4.93,4,6.25,18.3,6.39,23.33.7a14.9,14.9,0,0,1,7.51-4.45c1-.31,2.05-.69,3.7-1.25-2.74-2.39-5-4.38-7.27-6.34a11.89,11.89,0,0,0-8.59-3.1c-2.8.09-5.59,1.46-8.28.63C237.84,222.81,232.75,228.88,226.93,234.56Zm51.34-45.91a35.48,35.48,0,0,0,15.09-3.58c2.41-1.12,2.57-2.14.54-3.92a22.37,22.37,0,0,0-29.43.61c-1.68,1.59-1.54,2.64.35,3.72A26.37,26.37,0,0,0,278.27,188.65ZM213.8,178.46c-.32,1.55-.93,2.74-.71,3.75.47,2.18,0,5.64,2.48,6,6.29,1,12.57.43,18.16-3.25,1.1-.72,1.26-1.43.41-2.57-6.2-8.35-24.18-8.65-30.92-.46-.49.6-1.21,1.07-.34,2,1.59,1.75,6.11,2.79,8.51,1.8-.78-1.54-3.95-1.55-3.34-3.36C208.78,180.29,211.23,179.21,213.8,178.46Zm43.63,32.86c-5.77,6.77-10.42,6.76-17,.18-3,3.4-5.2,4.17-7.15,2.26-2.76-2.7-.41-4.49,1.69-6.36-4.15.33-6.26,2.28-6.2,5.42.07,3.53,3.14,6.88,6.71,6,4.57-1.19,8.81.16,13.18.08,4.63-.08,9.24-1.83,13.87.09a2.22,2.22,0,0,0,1.05,0c3.18-.51,5.64-3.33,5.39-6.18-.29-3.41-2-4.95-5.29-4.85,2.58,2.78,2.84,4.23,1.08,5.88C262.69,215.65,260.45,214.94,257.43,211.32Zm42.68-30.57a19.73,19.73,0,0,0-1.47-2,24.81,24.81,0,0,0-17.95-8.25c-5.45-.18-10.45,1.14-14.62,4.93a12.91,12.91,0,0,1-5.38,3.18c-1.08.29-2.72.14-2,1.93s2.09,1.14,3.22.41c1.66-1.08,3.25-2.26,4.85-3.44,9.15-6.75,19.44-6.41,28.18,1,1.07.9,2,1.95,3,2.9a1.22,1.22,0,0,0,1.59.23C299.77,181.46,299.88,181.11,300.11,180.75Zm-83.27-10.28a25.18,25.18,0,0,0-17.91,8.69c-.56.63-1.62,1.44-.64,2.35s1.65-.09,2.33-.73c11.3-10.4,20.08-10.91,32.35-1.93a32.51,32.51,0,0,0,3.8,2.47c1,.54,2.14.48,2.57-.85s-.43-1.58-1.5-1.75a12,12,0,0,1-6-3.35C227.68,171.62,222.7,170.6,216.84,170.47ZM296.46,187c-17.79,5.68-17.79,5.67-33.81-1.14-.74-.32-1.78-1.23-2.41.05-.49,1,.41,1.72,1.08,2.37C269.67,196.35,287.4,195.93,296.46,187Zm-94.19.17c0,1.11.66,1.44,1.16,1.83,8.54,6.7,23.33,6.84,31.89.26,1.14-.87,3.27-1.9,2.23-3.4s-2.69.18-3.87,1c-8.19,5.38-16.86,5.58-25.84,2.44C206,188.63,204.19,187.91,202.27,187.19Z"/><path class="cls-2" d="M393.39,307.31v19.37c0,3.28-.14,6.56,0,9.83.16,2.92-.63,4.42-3.89,4.05a39.09,39.09,0,0,0-6.67,0c-2.38.16-3.27-.65-3.27-3.16.06-18.27,0-36.53-.05-54.79,0-1.26-.26-2.69,1.43-3.18a3.55,3.55,0,0,1,3.77,1.1q11.19,10.89,22.48,21.68c3.26,3.14,6.54,6.26,10.48,10V299.36c0-5.38.07-10.77,0-16.15,0-2.3.94-3.18,3.13-3.14,13.07.24,10.58-1.81,10.7,9.92.15,15.69.06,31.38,0,47.06,0,1.47,1,3.5-1.26,4.27s-3.49-.58-4.87-2q-14.82-15-29.69-29.87C395.2,309,394.68,308.52,393.39,307.31Z"/><path class="cls-2" d="M275.77,311.92c0-9.59.11-18.59-.06-27.58-.06-3.12.72-4.42,4.1-4.32,11.48.35,9.71-1.72,9.78,9.86.1,15.8,0,31.6,0,47.4,0,1.42.66,3.27-1.25,4s-3.25-.25-4.61-1.62Q269.07,324.78,254.3,310c-.81-.81-1.66-1.59-3.11-3v10.31c0,6.78-.05,13.57,0,20.36,0,2.1-.64,2.8-2.81,2.86-10.82.28-10.82.34-10.82-10.38q0-23.34,0-46.69c0-1.41-.76-3.29,1.13-4.05s3.38.47,4.81,1.87c10,9.72,20,19.35,30,29A25.14,25.14,0,0,0,275.77,311.92Z"/><path class="cls-2" d="M65.91,310.54c0-8.78.13-17.57-.07-26.35-.07-3.31,1.17-4.23,4.3-4.16,7.49.16,15,0,22.48.06,9.37.12,17,5.88,19.11,14.15s-1.44,16.1-9.8,20.82c-1.92,1.09-2.1,1.85-1.06,3.68,3.33,5.9,6.52,11.89,9.7,17.87,1.69,3.19,1.16,3.45-2.32,4-8.16,1.32-13.37-1.33-16-9.51-1.33-4.18-4.07-7.9-5.79-12-1.27-3-3.64-2-5.62-1.93-2.32.11-1.15,2.21-1.18,3.34-.14,5.49-.16,11,0,16.5.06,2.48-.55,3.53-3.29,3.54-10.47.07-10.47.16-10.46-10.37Q65.92,320.37,65.91,310.54ZM86.8,292.68c-7.18-.05-7.18-.05-7.17,7.2,0,1.4.05,2.81,0,4.21s.24,1.93,1.71,1.9c3.73-.09,7.48.12,11.2-.1A6.64,6.64,0,0,0,98.65,299a6.46,6.46,0,0,0-6.25-6.31C90.55,292.56,88.67,292.68,86.8,292.68Z"/><path class="cls-2" d="M173.45,322.75c0,3.39,0,6.79,0,10.18,0,1.45-.16,2.67-1.73,3.49-12,6.26-30.38,8.51-42.89-4.48-10.24-10.64-11.39-27.7-2.45-40a30.81,30.81,0,0,1,38.28-9.4,76.51,76.51,0,0,1,6.58,4c2,1.23,2.61,2.64.5,4.39-.62.51-1.08,1.23-1.66,1.81-1.56,1.57-2.89,3.63-4.78,4.56-2.37,1.17-3.79-1.7-5.73-2.58A17.19,17.19,0,0,0,138.2,320,17.62,17.62,0,0,0,158,326.8c2.44-.79,1.56-2.5,1.66-3.95.15-2-1.52-1.5-2.46-1.36-3.84.54-4.74-1.14-4.62-4.75.25-7.26.06-7.26,7.26-7.26,3.4,0,6.8.14,10.19-.05,2.7-.16,3.5,1,3.42,3.48C173.37,316.19,173.45,319.47,173.45,322.75Z"/><path class="cls-2" d="M186.07,310.2c0-8.78.07-17.56,0-26.34,0-2.83.88-3.89,3.87-3.84,10.53.16,21.07.1,31.61,0,2.63,0,3.73.76,3.73,3.61,0,9.31.11,9.31-9.07,9.32-4.68,0-9.36.09-14,0-1.84,0-2.34.54-2.4,2.37-.29,8.2-.36,8.19,7.76,8.2,3.4,0,6.79.09,10.18,0,2.36-.09,3.3.71,3.35,3.21.23,9.69.3,9.69-9.46,9.69-3.16,0-6.32.1-9.48,0-1.89-.09-2.3.59-2.35,2.39-.26,9-.31,9,8.68,9,4.56,0,9.13.06,13.7,0,2.22-.05,3.25.73,3.11,3.06a55,55,0,0,0,0,6.67c.17,2.53-.95,3.14-3.32,3.11-10.77-.1-21.54-.14-32.31,0-2.91,0-3.59-1.07-3.56-3.7C186.13,328,186.07,319.1,186.07,310.2Z"/><path class="cls-2" d="M489.72,340.53c-4.41,1.4-7.07-1.19-8.39-5.94-.66-2.38-2.22-3.09-4.7-3-5.49.2-11,.21-16.48,0-2.66-.1-4,.81-4.9,3.28-.74,2-1.05,5-3.41,5.37a41.86,41.86,0,0,1-11.51,0c-2-.27-.75-2.26-.21-3.44q6.08-13.2,12.2-26.36,6.57-14.13,13.17-28.24c.61-1.31,1-3,3-2.92,1.86.06,2.07,1.61,2.64,2.84l25,53.6c2.07,4.44,1.84,4.8-3.17,4.8ZM468.36,306c-2.07,4.52-3.92,8.49-5.7,12.48-.47,1.05.09,1.47,1.16,1.46,3.46,0,6.92,0,10.89,0C472.57,315.2,470.62,310.91,468.36,306Z"/><path class="cls-2" d="M50.27,340.52c-4.24,1.35-6.93-1-8.18-5.7-.67-2.5-2.19-3.36-4.85-3.24-5.61.23-11.23.17-16.84,0-2.19-.06-3.6.49-4.15,2.7-.14.56-.53,1.05-.68,1.61-1,3.79-3.45,5.24-7.31,4.65a28,28,0,0,0-4.2,0c-4.67,0-4.86-.35-2.83-4.72q12.35-26.52,24.7-53c.65-1.39.84-3.38,3-3.47,2.41-.1,2.57,2.06,3.27,3.55q12.17,26,24.25,52.09c2.58,5.57,2.55,5.59-3.58,5.59ZM29,305.88c-2.28,5.07-4.2,9.34-6.2,13.77h12.5Z"/><path class="cls-2" d="M312.89,316.49c0-6.9-.12-13.8.07-20.7.07-2.43-.85-2.94-2.95-2.86-2.68.1-5.38-.09-8.06.05-2.34.12-3.07-.86-3-3.1.3-11.62-1.78-9.64,9.4-9.78,9.47-.11,18.94.07,28.41-.08,3.11,0,4,1.05,4,4.1-.17,8.83-.05,8.83-8.85,8.83-5,0-5,0-5,5,0,12.75-.08,25.49.05,38.24,0,3.21-.66,4.53-4.25,4.45-9.74-.22-9.74-.05-9.75-9.73Z"/><path class="cls-2" d="M350.14,310.2c0-8.77.1-17.55-.05-26.32,0-2.95,1-4.05,3.88-3.83a44.29,44.29,0,0,0,6.31,0c2.76-.19,3.63.95,3.6,3.69-.11,13.57,0,27.14,0,40.71,0,4-.16,8,.06,11.93.18,3.08-.59,4.66-4,4.18a38.27,38.27,0,0,0-5.25-.07c-4.48,0-4.49,0-4.49-4.68Z"/><path class="cls-2" d="M177.55,396.61c-1.92.1-2.86-.34-2-2.2l14.75-32.55c.34-.73.59-1.59,1.63-1.59,1.23,0,1.42,1,1.79,1.87L206.1,389.6c.62,1.39,1.35,2.73,1.84,4.16.29.86,1.44,2.1-.07,2.68-1.23.47-2.83.64-3.61-1.09-.86-1.91-1.77-3.81-2.54-5.76a2.86,2.86,0,0,0-3.2-2c-4.09.13-8.19.18-12.28,0-2.44-.12-4,.5-4.65,3a46.67,46.67,0,0,1-2,4.5C179.19,396.16,178.6,396.92,177.55,396.61Zm21.8-12.31-7.47-16.75c-2.36,5.31-4.4,10-6.5,14.61-.66,1.45-.46,2.16,1.29,2.15C190.73,384.27,194.78,384.3,199.35,384.3Z"/><path class="cls-2" d="M363.84,378.52c0-4.91.07-9.83,0-14.75,0-2.15.47-3.16,2.93-3.07,5.62.18,11.24.09,16.86.06,1.42,0,2.55,0,2.49,1.94s-1.3,1.59-2.43,1.59c-4.33,0-8.67.1-13,0-2-.06-2.58.51-2.64,2.52-.31,9.81-.37,9.81,9.43,9.81,1.29,0,2.57,0,3.86,0s2.4.18,2.4,1.82-.94,1.93-2.32,1.91c-3.51,0-7,.1-10.53,0-2-.08-3,.35-2.86,2.66a62.14,62.14,0,0,1,0,7.72c-.09,1.85.59,2.48,2.41,2.44,4.33-.09,8.66-.05,13,0,1.16,0,2.66-.53,2.72,1.64s-1.21,1.87-2.51,1.87c-5.74,0-11.48-.09-17.21,0-2.11,0-2.62-.82-2.59-2.68.05-5.15,0-10.3,0-15.46Z"/><path class="cls-2" d="M129.34,393.2a12.19,12.19,0,0,0,8.24-2.81c1.51-1.18,3-1.65,4.13.2s-.85,2.43-1.81,3.15c-6.34,4.85-15.65,4.57-22.14-.55a18.42,18.42,0,0,1-5.48-21.77,18.61,18.61,0,0,1,19.23-11.1,19.05,19.05,0,0,1,9.26,3.86c.94.73,2,1.45.71,2.79-1,1-1.84,1.62-3.24.42a13.85,13.85,0,0,0-6.61-3,14.18,14.18,0,0,0-16.4,12.91A14.37,14.37,0,0,0,129.34,393.2Z"/><path class="cls-2" d="M244.62,378.59c0-5,.08-10.06,0-15.09,0-2.1.59-2.84,2.8-2.78,5.61.16,11.23.06,16.84,0,1.32,0,2.64-.19,2.58,1.82s-1.51,1.7-2.74,1.7c-4.21,0-8.43.16-12.63,0-2.45-.12-3.05.83-2.85,3,.31,3.47-1.39,7.94.68,10.19s6.64.33,10,.82c1.67.24,4.67-1.52,4.79,1.52.13,3.61-3.15,1.58-4.85,1.85-3.41.54-8-1.42-10,.85-1.71,2-.52,6.46-.61,9.83,0,.82-.07,1.64,0,2.46.1,1.65-.86,1.84-2.21,1.85s-1.78-.64-1.77-1.91C244.65,389.35,244.63,384,244.62,378.59Z"/><path class="cls-2" d="M304.35,378.8c0-5,.09-10.05,0-15.08-.06-2.14.37-3.1,2.84-3,5.61.2,11.22.1,16.83,0,1.54,0,2.44.23,2.39,2.05-.05,2-1.43,1.47-2.48,1.48-4.44,0-8.89.06-13.33,0-1.6,0-2.31.39-2.24,2.15.13,3.15.13,6.31,0,9.47-.06,1.83.56,2.43,2.41,2.36,3.62-.13,7.25,0,10.87,0,1.22,0,2.37,0,2.38,1.72s-1.13,1.78-2.35,1.79c-3.28,0-6.56.16-9.82,0-2.62-.16-3.8.49-3.54,3.39s.06,6.08.05,9.12c0,1.37-.11,2.45-2,2.48s-2-1.05-2-2.43C304.36,389.09,304.35,384,304.35,378.8Z"/><path class="cls-2" d="M184.67,420.07c0,2.91,0,5.81,0,8.72,0,.65,0,1.53-1,1.4-.8-.11-.67-.86-.68-1.39,0-4,0-8,0-11.94,0-.59,0-1.26.71-1.4s1,.49,1.34.94a67.92,67.92,0,0,0,8.38,9.16c0-2.62,0-5.24,0-7.85,0-.71-.48-1.9.71-2,1.34-.13.86,1.14.87,1.81a75.4,75.4,0,0,1-.7,13q-4.4-5.35-8.78-10.7Z"/><path class="cls-2" d="M247,422.76c-1.05,1.32-2.3.94-3.39.9-1.85-.07-3,.1-3,2.55s1,2.66,3,2.61c2.84-.06,2.84,0,4.78,1-3,.94-5.73.39-8.42.43-1.21,0-.88-1.21-.89-1.92-.06-3.62,0-7.24,0-10.86,0-1.17.17-2,1.69-2,2.4.09,4.81,0,7.9,0-1.56,2.06-3.14,1.42-4.46,1.52-1.67.14-3.49-.49-3.55,2.42s1.59,2.5,3.36,2.53C244.9,422.05,246,421.61,247,422.76Z"/><path class="cls-2" d="M352.35,415.69c3.49-.07,5.49,2.81,3.81,5.83a2,2,0,0,0,.24,2.74,3.32,3.32,0,0,1-.47,5,5.16,5.16,0,0,1-6.75.22,3.39,3.39,0,0,1-.89-4.94c.74-1.13,1.25-1.69.36-3.18C347,418.6,349.05,415.76,352.35,415.69Zm3,10.88a2.79,2.79,0,0,0-3.05-2.6,2.61,2.61,0,0,0-2.83,2.46c-.08,1.84,1.29,2.51,3,2.53A2.62,2.62,0,0,0,355.39,426.57Zm-.33-6.71a2.54,2.54,0,0,0-2.44-2.68,2.4,2.4,0,0,0-2.75,2.52c0,1.6,1.14,2.21,2.59,2.24A2.24,2.24,0,0,0,355.06,419.86Z"/><path class="cls-2" d="M328.1,415.72c3.43,0,5.27,2.95,3.5,5.93-.7,1.19-.46,1.65.23,2.55,1.41,1.83,1.38,3.84-.52,5.22a5.21,5.21,0,0,1-6.77-.12,3.37,3.37,0,0,1-.53-5,2.09,2.09,0,0,0,.21-2.87C322.53,418.46,324.55,415.67,328.1,415.72ZM331,426.59a3,3,0,0,0-2.53-2.59c-1.71-.24-3.09.41-3.41,2.15s.8,2.59,2.36,2.8A2.93,2.93,0,0,0,331,426.59Zm-.48-6.94a2.52,2.52,0,0,0-5,.14c0,1.67,1.16,2.19,2.56,2.16A2.24,2.24,0,0,0,330.53,419.65Z"/><path class="cls-2" d="M218.61,430.48c-3.77-.07-6.11-1.59-7.42-4.52a7.21,7.21,0,0,1,1.55-8.39c2.23-2.36,5.12-2.7,8.09-1.79,1,.29,2.79.73,2.19,2.14s-1.79,0-2.6-.37a5.16,5.16,0,0,0-6.57,1.63,5.44,5.44,0,0,0,0,7.38,5.26,5.26,0,0,0,6.56,1.73c.84-.32,2-1.85,2.61-.42s-1.22,1.67-2.16,2.12A7.71,7.71,0,0,1,218.61,430.48Z"/><path class="cls-2" d="M305.32,425.21c-1.89-.31-3.88.11-5.28-1.52a4.7,4.7,0,0,1-.8-5.2,4.69,4.69,0,0,1,8.7.06c2.1,4.92-1.74,11.39-7,11.84C301.56,427.94,304.78,427.93,305.32,425.21Zm-1.61-1.82c1.59-.11,3.05-.41,3-2.49s-1-3.73-3.25-3.7a3,3,0,0,0-2.9,3.29A2.8,2.8,0,0,0,303.71,423.39Z"/><path class="cls-2" d="M144.06,430.45a4.15,4.15,0,0,1-1.7-.31c-.91-.54-2.77-.84-2.11-2.23s1.75.18,2.57.53c1.71.71,3.37.82,4.19-1s-.76-2.67-2.16-3.37c-.52-.26-1-.52-1.57-.76-2.54-1.14-4.07-2.86-2.83-5.77.88-2.05,4.47-2.87,6.8-1.68.48.24,1.25.41,1.05,1.17-.25,1-1,.68-1.69.5a12.91,12.91,0,0,0-2.33-.55,2.07,2.07,0,0,0-2.21,1.39,2.12,2.12,0,0,0,1,2.7c1.1.65,2.3,1.12,3.43,1.72,1.93,1,3.15,2.48,2.62,4.79C148.71,429.35,146.7,430.49,144.06,430.45Z"/><path class="cls-2" d="M378.58,356.71c-2.3-1-5-2-7.64-3.26-.93-.44-.6-1.38-.23-2.16.47-1,1.2-1.52,2.23-1,2.37,1.25,4.7,2.57,7,3.91.72.42.71,1.1.43,1.84S379.62,356.85,378.58,356.71Z"/><path class="cls-2" d="M164.64,423c0-2,0-3.95,0-5.93,0-.51-.23-1.25.61-1.37s1.14.61,1.15,1.32q0,5.92,0,11.85c0,.69-.06,1.47-1.06,1.38-.84-.07-.66-.81-.67-1.33,0-2,0-4,0-5.92Z"/><path class="cls-2" d="M283.52,423.25c0,1.75,0,3.51,0,5.26,0,.62.27,1.58-.72,1.65s-.88-.87-.9-1.53a35.31,35.31,0,0,0-.09-5.25c-.22-1.32,1.57-3.74-1.72-3.81-.5,0-.42-.78-.06-1.12.89-.84,1.43-2.27,2.9-2.24.74,0,.62.87.62,1.43,0,1.87,0,3.74,0,5.61Z"/><path class="cls-1" d="M231.08,233.24c4.6-5.41,9.13-6.77,15.87-4.52a4.9,4.9,0,0,0,3.63,0c6.63-2.59,11.51-1.14,16.28,4.57A146.19,146.19,0,0,0,231.08,233.24Z"/><path class="cls-1" d="M261,235c-7,7.88-16,9-25,.47-.35-.33-.81-.62-.62-1.07a1.28,1.28,0,0,1,1.4-.84,20.1,20.1,0,0,1,4,.88C247.28,237.08,253.9,234.63,261,235Z"/><path class="cls-1" d="M273.12,178.42a9.07,9.07,0,0,0,.23,8.62c-2.75-1-5.85-1.64-5.93-3.83S270.49,180.18,273.12,178.42Z"/><path class="cls-1" d="M284.28,178.61a7,7,0,0,1,3.69,1.73c2.91,2.12,2.81,2.65-.29,4.46-2.25,1.31-3.26,1.3-2.85-1.77C285,181.63,284.49,180.13,284.28,178.61Z"/><path class="cls-1" d="M224.31,187.2c2-3.15,1.69-5.6.78-8.38,2.48,1.19,5.46,2.31,5.44,4.34C230.52,185.42,227.34,185.94,224.31,187.2Z"/></g></g></svg>